# xmcd CD database file
#
# Track frame offsets:
#	150
#	16142
#	30174
#	47456
#	64101
#	80467
#	98539
#	113122
#	129867
#	147030
#
# Disc length: 2163 seconds
#
# Revision: 1
# Processed by: cddbd v1.5.2PL0 Copyright (c) Steve Scherf et al.
# Submitted via: CDex 1.51
#
DISCID=6808710a
DTITLE=Brent Rader - Brent Rader
DYEAR=2006
DGENRE=Country
TTITLE0=Why Leave
TTITLE1=Texas Two Step
TTITLE2=Let It Go
TTITLE3=The Entertainer
TTITLE4=With You
TTITLE5=What Makes You Cry
TTITLE6=Where Nobody Knows My Name
TTITLE7=The One
TTITLE8=Faith Is No Angel
TTITLE9=Smile
EXTD=YEAR: 2006
EXTT0=
EXTT1=
EXTT2=
EXTT3=
EXTT4=
EXTT5=
EXTT6=
EXTT7=
EXTT8=
EXTT9=
PLAYORDER=
